<?xml version="1.0" standalone="no"?>
<!DOCTYPE svg PUBLIC "-//W3C//DTD SVG 20010904//EN"
 "http://www.w3.org/TR/2001/REC-SVG-20010904/DTD/svg10.dtd">
<svg version="1.0" xmlns="http://www.w3.org/2000/svg"
 width="792.000000pt" height="792.000000pt" viewBox="0 0 792.000000 792.000000"
 preserveAspectRatio="xMidYMid meet">
<metadata>
Created by potrace 1.14, written by Peter Selinger 2001-2017
</metadata>
<g transform="translate(0.000000,792.000000) scale(0.100000,-0.100000)"
fill="#000000" stroke="none">
<path d="M3836 6393 c-1 -1 -43 -4 -94 -7 -50 -2 -97 -8 -102 -11 -6 -4 -30
-8 -53 -10 -23 -1 -49 -5 -57 -8 -8 -3 -35 -8 -60 -11 -25 -2 -58 -9 -73 -15
-16 -6 -33 -9 -38 -5 -5 3 -9 0 -9 -7 0 -7 -3 -9 -6 -6 -4 3 -14 2 -24 -3 -9
-5 -30 -11 -45 -14 -16 -3 -31 -9 -34 -13 -6 -8 -14 -11 -53 -18 -9 -2 -27 -9
-40 -16 -13 -7 -27 -12 -32 -11 -4 2 -14 -3 -22 -9 -8 -6 -14 -8 -14 -5 0 4
-13 -2 -29 -13 -15 -11 -31 -18 -35 -14 -3 3 -6 1 -6 -5 0 -7 -3 -11 -7 -11
-15 3 -73 -23 -73 -33 0 -5 -4 -7 -9 -3 -5 3 -16 -1 -24 -9 -9 -10 -18 -11
-26 -5 -6 5 -9 6 -6 2 6 -7 -36 -39 -47 -35 -5 1 -8 -2 -8 -7 0 -5 -17 -15
-37 -21 -21 -6 -45 -14 -53 -17 -8 -4 -18 -5 -22 -5 -5 1 -8 -3 -8 -8 0 -6 -7
-10 -15 -10 -9 0 -18 -6 -21 -14 -5 -12 -37 -27 -49 -23 -3 1 -12 -8 -21 -21
-9 -13 -26 -28 -38 -33 -37 -17 -71 -39 -61 -39 5 0 -2 -11 -17 -25 -15 -14
-32 -25 -38 -25 -5 0 -10 -4 -10 -10 0 -5 -9 -10 -20 -10 -11 0 -20 -4 -20
-10 0 -5 -7 -10 -15 -10 -8 0 -15 -5 -15 -11 0 -5 -4 -7 -10 -4 -6 3 -10 0
-10 -8 0 -7 -13 -28 -30 -47 -16 -18 -27 -37 -23 -43 3 -6 2 -8 -3 -5 -10 5
-45 -28 -37 -35 2 -3 -5 -8 -16 -12 -12 -3 -19 -11 -16 -16 4 -5 -1 -12 -9
-15 -9 -3 -16 -13 -16 -20 0 -8 -7 -17 -15 -20 -8 -4 -12 -10 -9 -15 3 -5 1
-9 -5 -9 -5 0 -13 -9 -16 -20 -4 -12 -11 -17 -18 -13 -8 5 -8 2 0 -9 11 -12 9
-19 -7 -38 -11 -12 -22 -30 -25 -40 -3 -10 -12 -21 -20 -24 -8 -3 -15 -12 -15
-21 0 -8 -6 -15 -12 -15 -9 0 -8 -4 2 -10 8 -5 10 -10 4 -10 -7 0 -14 -9 -17
-21 -4 -14 -10 -18 -19 -13 -10 6 -10 5 -2 -7 9 -11 9 -17 -1 -26 -7 -6 -16
-9 -21 -5 -4 4 -4 1 0 -6 5 -8 1 -21 -10 -33 -9 -10 -14 -19 -10 -19 3 0 -1
-11 -10 -25 -9 -14 -13 -25 -10 -25 4 0 -2 -10 -13 -22 -11 -11 -18 -25 -15
-30 3 -4 0 -8 -5 -8 -6 0 -11 -3 -10 -7 2 -15 -13 -53 -21 -53 -5 0 -7 -8 -6
-17 2 -10 -3 -24 -11 -31 -7 -7 -13 -22 -13 -33 0 -10 -5 -19 -11 -19 -5 0 -8
-4 -5 -8 3 -5 -1 -20 -9 -35 -7 -14 -11 -28 -7 -31 3 -3 1 -6 -5 -6 -5 0 -10
-6 -11 -12 -5 -45 -12 -72 -20 -77 -8 -5 -22 -61 -24 -98 -1 -7 -6 -13 -11
-13 -6 0 -8 -2 -5 -5 3 -4 1 -25 -4 -48 -19 -84 -21 -93 -21 -129 -1 -21 -4
-38 -8 -38 -4 0 -7 -12 -7 -27 0 -16 -3 -39 -6 -53 -4 -14 -7 -50 -8 -80 0
-30 -5 -61 -11 -67 -6 -9 -6 -13 1 -13 6 0 9 -7 6 -15 -8 -20 -11 -214 -3
-209 3 2 7 -27 8 -64 2 -60 7 -107 11 -107 3 0 12 -76 14 -112 0 -18 3 -33 6
-33 5 0 10 -34 13 -77 0 -7 3 -13 7 -13 6 0 11 -27 14 -72 0 -14 4 -24 9 -21
4 2 7 -9 7 -26 0 -16 5 -33 11 -36 5 -4 8 -12 6 -18 -2 -7 2 -18 10 -25 7 -7
13 -23 13 -36 0 -12 4 -26 8 -31 5 -6 15 -30 22 -55 8 -25 18 -48 23 -51 4 -3
9 -16 10 -27 1 -12 5 -22 9 -22 4 0 8 -9 8 -21 0 -11 5 -17 10 -14 9 6 15 -25
10 -50 -1 -5 2 -7 6 -2 4 4 14 -5 21 -20 7 -16 17 -35 22 -43 5 -8 16 -30 23
-47 7 -18 16 -33 20 -33 5 0 8 -7 8 -15 0 -8 5 -15 10 -15 6 0 10 -5 10 -11 0
-6 12 -26 26 -44 15 -20 23 -39 18 -46 -4 -7 -3 -9 3 -6 10 6 28 -19 25 -35
-1 -4 5 -5 13 -2 9 4 15 0 15 -9 0 -9 7 -23 16 -31 8 -9 13 -16 10 -16 -3 0 8
-13 24 -29 17 -15 30 -33 30 -40 0 -6 5 -11 10 -11 6 0 10 -8 10 -17 0 -9 3
-14 6 -10 7 6 54 -41 54 -54 0 -5 7 -9 16 -9 8 0 13 -4 10 -8 -3 -5 24 -35 60
-68 36 -32 86 -78 110 -101 25 -24 50 -43 55 -43 5 0 9 -4 9 -10 0 -5 5 -10
10 -10 6 0 23 -12 38 -28 16 -15 35 -28 43 -30 8 -2 16 -8 17 -13 2 -5 9 -9
16 -9 7 0 28 -15 48 -32 19 -18 41 -33 49 -33 8 0 23 -8 33 -17 11 -10 26 -18
33 -18 7 0 13 -4 13 -10 0 -5 7 -10 16 -10 8 0 13 -4 10 -9 -4 -5 2 -8 11 -7
10 2 25 -5 35 -14 10 -9 38 -23 61 -31 23 -7 45 -18 49 -24 4 -5 12 -11 18
-11 5 -1 12 -3 15 -4 3 -1 8 -3 13 -4 36 -8 81 -29 77 -36 -3 -4 4 -6 15 -3
12 3 20 0 20 -8 0 -7 3 -10 6 -7 3 3 31 -3 62 -14 31 -11 65 -20 76 -21 12 0
26 -4 31 -8 6 -4 27 -10 48 -14 20 -4 37 -10 37 -14 0 -3 15 -6 33 -7 56 -2
97 -8 97 -14 0 -4 6 -7 13 -7 6 0 46 -4 87 -8 41 -4 96 -8 122 -9 27 0 48 -3
48 -6 0 -3 56 -5 125 -5 69 0 125 4 125 9 0 5 7 3 15 -4 11 -9 15 -9 15 -1 0
7 5 9 10 6 6 -4 8 -10 5 -14 -2 -5 8 -6 23 -3 25 5 26 4 12 -14 -14 -18 -14
-18 2 -5 10 7 15 17 12 22 -8 13 10 11 23 -2 8 -8 11 -6 10 7 -2 14 6 18 31
20 17 0 32 -4 32 -10 0 -7 3 -8 8 -1 11 15 54 32 75 29 9 -1 17 1 17 6 0 4 10
8 23 7 31 0 73 9 105 25 15 7 36 13 47 13 11 0 22 3 25 6 3 4 19 9 35 10 17 2
33 8 36 12 3 5 12 10 20 11 62 14 80 20 85 27 3 5 10 7 15 4 5 -4 9 -1 9 4 0
6 3 10 8 9 4 -1 17 3 29 10 12 7 28 11 35 10 7 -2 12 2 11 9 -1 6 4 14 13 17
9 4 12 2 8 -5 -3 -6 6 -3 22 7 15 11 29 18 31 16 2 -1 29 12 61 30 31 18 60
33 65 34 4 1 12 2 18 3 5 0 8 5 5 10 -5 8 19 19 35 17 3 -1 13 6 22 14 34 31
46 40 57 40 5 0 10 5 10 10 0 6 5 10 11 10 6 0 17 7 26 15 8 8 19 13 24 10 5
-4 9 1 9 9 0 9 4 16 8 16 5 0 18 8 29 17 11 10 35 29 54 43 18 14 39 33 48 42
8 9 18 15 23 12 4 -3 8 2 8 11 0 8 10 20 23 25 12 5 18 9 12 9 -5 1 2 9 15 18
14 10 29 17 33 15 5 -1 6 1 3 6 -6 10 85 98 97 94 5 -1 6 2 3 7 -4 5 8 24 24
43 17 18 41 46 53 62 12 16 32 40 44 53 12 12 20 23 18 23 -3 0 2 8 10 18 8 9
15 20 15 25 -1 12 24 35 33 30 4 -2 7 2 7 10 0 8 11 30 24 50 13 19 22 38 18
41 -3 3 0 6 6 6 7 0 12 7 12 15 0 9 7 18 15 21 8 4 12 10 9 15 -3 5 4 21 15
35 12 15 21 33 21 40 0 8 5 14 11 14 6 0 9 7 5 15 -3 8 -1 15 4 15 6 0 10 7
10 15 0 8 5 15 11 15 5 0 8 4 5 9 -3 4 4 25 14 47 11 21 20 44 20 52 0 7 4 11
9 7 6 -3 8 4 6 15 -2 11 0 20 5 20 5 0 12 16 16 35 3 19 10 38 15 41 5 3 9 16
9 30 0 13 6 24 13 24 8 0 7 4 -3 10 -14 9 -7 14 13 11 5 -1 6 3 2 8 -3 6 1 22
10 35 9 14 14 29 11 35 -3 5 1 12 10 15 8 3 12 11 9 17 -4 5 1 20 12 31 10 12
13 19 7 15 -6 -3 -11 0 -11 8 0 8 4 12 8 9 4 -2 10 0 14 6 3 5 1 10 -6 10 -8
0 -9 3 0 13 6 8 8 17 4 20 -3 4 0 7 8 7 11 0 11 2 -1 10 -8 5 -10 10 -4 10 7
0 14 9 17 20 3 11 0 20 -5 20 -6 0 -6 6 2 15 6 8 9 19 5 25 -3 5 0 10 7 10 8
1 6 6 -6 15 -19 15 -19 15 5 16 13 1 28 1 32 0 5 -1 6 3 2 8 -3 6 -12 8 -19 5
-7 -3 -16 2 -19 10 -4 10 -1 13 9 9 7 -3 14 0 14 6 0 6 -5 11 -11 11 -8 0 -8
4 0 14 8 10 9 16 1 21 -6 3 -8 11 -4 16 9 15 26 -2 21 -21 -2 -10 -1 -24 4
-31 5 -9 7 2 5 29 -3 35 -2 41 9 32 10 -8 15 -8 21 1 4 7 3 9 -4 5 -6 -3 -13
-2 -17 4 -4 6 -10 8 -15 5 -5 -3 -11 -1 -14 4 -4 5 -2 12 4 16 6 4 7 11 4 17
-4 7 -2 8 4 4 7 -4 12 -1 12 9 0 10 -5 13 -12 9 -7 -4 -10 -4 -6 1 4 4 3 17
-3 28 -8 14 -8 18 0 13 15 -10 14 17 -1 33 -9 10 -9 12 -1 7 6 -3 14 -2 18 4
3 5 -1 10 -10 10 -9 0 -13 5 -9 11 3 6 0 15 -7 20 -12 7 -12 9 0 9 11 0 11 3
0 17 -12 14 -12 16 0 8 11 -6 10 -2 -2 16 -19 26 -22 43 -8 34 5 -3 13 0 17 6
4 7 3 9 -4 5 -11 -7 -28 31 -18 41 3 3 1 14 -4 24 -7 12 -7 20 0 24 7 4 8 11
1 18 -5 7 -9 43 -9 81 0 44 -4 71 -12 76 -9 6 -8 10 6 19 18 10 18 10 1 11
-15 0 -16 3 -7 20 8 14 8 20 0 20 -8 0 -8 6 0 20 9 16 8 22 -5 27 -13 5 -14 7
-3 14 8 6 9 9 1 9 -6 0 -10 11 -8 25 1 14 -2 25 -8 25 -5 0 -7 9 -4 20 3 11 1
20 -5 20 -5 0 -6 5 -3 10 3 6 3 10 -2 10 -4 0 -13 11 -20 25 -6 14 -8 23 -4
20 4 -2 -3 18 -16 46 -13 27 -21 54 -18 59 3 6 1 10 -5 10 -7 0 -9 7 -6 15 3
9 -1 18 -9 21 -8 4 -12 10 -9 15 3 5 0 9 -6 9 -6 0 -10 6 -8 13 1 6 -3 22 -10
35 -7 12 -10 22 -7 22 3 0 -2 14 -10 30 -9 17 -13 36 -9 42 4 7 3 8 -4 4 -8
-5 -12 0 -12 13 0 12 -4 21 -8 21 -11 0 -58 102 -53 115 1 6 -1 7 -5 2 -9 -9
-45 43 -38 55 3 4 0 8 -5 8 -6 0 -11 7 -11 15 0 8 -4 15 -10 15 -5 0 -10 7
-10 15 0 8 -4 15 -10 15 -5 0 -10 5 -10 11 0 7 -8 18 -17 26 -10 8 -12 11 -4
7 9 -5 7 2 -5 18 -10 14 -23 23 -28 20 -5 -3 -6 0 -2 6 3 6 -1 17 -9 25 -8 9
-15 19 -15 24 0 4 -9 14 -20 21 -11 7 -20 19 -20 28 0 8 -4 12 -10 9 -5 -3
-10 1 -10 9 0 9 -7 16 -16 16 -8 0 -12 5 -9 10 3 6 1 10 -4 10 -6 0 -11 5 -11
11 0 6 -31 42 -70 80 -38 39 -70 75 -70 80 0 6 -4 7 -10 4 -5 -3 -10 1 -10 9
0 9 -5 16 -11 16 -5 0 -7 4 -4 10 4 6 -1 7 -11 3 -12 -4 -15 -3 -10 5 4 7 2
12 -3 12 -6 0 -11 7 -11 15 0 8 -4 15 -10 15 -15 0 -50 33 -50 47 0 7 -7 10
-15 7 -9 -4 -15 0 -15 9 0 9 -9 19 -20 22 -11 3 -20 11 -20 16 0 6 -4 7 -10 4
-5 -3 -10 -2 -10 2 0 5 -18 19 -40 33 -22 14 -40 28 -40 31 0 4 -13 12 -30 19
-16 7 -30 17 -30 22 0 5 -5 6 -10 3 -6 -3 -13 1 -16 9 -3 9 -12 16 -19 16 -8
0 -20 7 -29 15 -8 9 -17 16 -18 16 -13 -1 -48 13 -48 18 0 3 -13 12 -30 19
-16 6 -43 17 -59 24 -16 7 -27 17 -24 23 4 5 3 7 -2 3 -9 -9 -76 18 -87 35 -6
9 -8 9 -8 0 0 -8 -17 -6 -56 7 -31 11 -60 17 -64 15 -5 -3 -11 -1 -15 5 -4 6
-11 8 -16 5 -5 -4 -9 -1 -9 4 0 6 -9 11 -20 11 -11 0 -20 3 -20 8 0 4 -10 7
-22 8 -28 1 -56 8 -88 21 -28 11 -113 27 -147 27 -13 0 -23 4 -23 9 0 4 -8 7
-17 6 -10 -2 -34 0 -53 4 -74 13 -424 30 -434 20z m2364 -1827 c0 -3 -4 -8
-10 -11 -5 -3 -10 -1 -10 4 0 6 5 11 10 11 6 0 10 -2 10 -4z"/>
<path d="M6260 4006 c0 -2 8 -10 18 -17 15 -13 16 -12 3 4 -13 16 -21 21 -21
13z"/>
<path d="M6264 3934 c-18 -14 -18 -15 4 -4 12 6 22 13 22 15 0 8 -5 6 -26 -11z"/>
</g>
</svg>
