<?xml version="1.0" standalone="no"?>
<!DOCTYPE svg PUBLIC "-//W3C//DTD SVG 20010904//EN"
 "http://www.w3.org/TR/2001/REC-SVG-20010904/DTD/svg10.dtd">
<svg version="1.0" xmlns="http://www.w3.org/2000/svg"
 width="1300.000000pt" height="1300.000000pt" viewBox="0 0 1300.000000 1300.000000"
 preserveAspectRatio="xMidYMid meet">
<metadata>
Created by potrace 1.14, written by Peter Selinger 2001-2017
</metadata>
<g transform="translate(0.000000,1300.000000) scale(0.100000,-0.100000)"
fill="#000000" stroke="none">
<path d="M6236 11921 c-4 -5 -23 -9 -44 -9 -20 1 -55 -2 -77 -6 -22 -4 -52 -9
-67 -10 -15 0 -30 -5 -34 -9 -4 -4 -13 -2 -21 4 -9 8 -17 8 -26 0 -8 -6 -17
-8 -20 -5 -3 3 -12 2 -19 -2 -21 -13 -41 -14 -55 -2 -10 8 -12 7 -8 -3 4 -11
-6 -15 -42 -16 -27 -1 -76 -4 -110 -5 -35 -2 -63 -7 -63 -12 0 -5 -2 -7 -6 -4
-3 3 -24 0 -47 -7 -23 -7 -57 -11 -75 -10 -18 1 -35 -2 -38 -7 -3 -4 -16 -8
-30 -8 -13 0 -24 -4 -24 -9 0 -5 -16 -7 -35 -5 -20 1 -34 0 -31 -4 2 -4 -6 -8
-17 -8 -42 -3 -67 -8 -67 -14 0 -3 -10 -6 -22 -7 -30 -2 -77 -10 -108 -18 -14
-4 -31 -7 -37 -7 -7 -1 -13 -6 -13 -12 0 -6 -5 -4 -10 4 -7 11 -10 11 -10 2 0
-7 -5 -10 -11 -6 -6 3 -14 2 -18 -4 -4 -7 -27 -13 -51 -15 -26 -3 -44 -9 -43
-15 2 -6 -4 -9 -12 -6 -9 4 -22 1 -30 -6 -11 -9 -15 -9 -15 -1 0 8 -8 6 -23
-4 -13 -8 -27 -12 -31 -8 -4 5 -14 -1 -22 -11 -10 -14 -14 -16 -14 -5 0 12 -2
12 -10 -1 -5 -8 -10 -12 -10 -7 0 4 -16 1 -35 -7 -19 -8 -35 -12 -35 -9 0 3
-8 -1 -17 -8 -15 -12 -16 -12 -8 1 6 12 5 13 -6 3 -7 -7 -21 -13 -31 -13 -10
0 -18 -4 -18 -10 0 -5 -7 -6 -17 -3 -11 4 -14 3 -9 -5 5 -8 2 -10 -8 -6 -8 3
-21 2 -28 -2 -7 -5 -19 -9 -27 -11 -8 -1 -17 -5 -20 -10 -3 -5 -16 -8 -28 -7
-12 1 -20 -3 -17 -7 5 -8 -10 -13 -28 -10 -5 0 -8 -3 -8 -8 0 -5 -8 -8 -17 -7
-10 2 -21 -2 -25 -7 -3 -6 -12 -12 -20 -13 -7 -1 -24 -6 -38 -12 -14 -5 -28
-10 -33 -11 -4 0 -21 -8 -37 -16 -16 -8 -31 -15 -32 -15 -2 1 -19 -5 -38 -14
-19 -8 -39 -12 -44 -9 -5 4 -6 2 -3 -4 4 -5 -12 -16 -34 -23 -23 -8 -44 -20
-46 -28 -5 -11 -7 -11 -14 0 -7 10 -9 10 -9 1 0 -7 -7 -13 -15 -13 -8 0 -15
-5 -15 -10 0 -6 -3 -10 -7 -9 -16 2 -53 -14 -53 -23 0 -5 -4 -6 -10 -3 -5 3
-10 1 -10 -6 0 -8 -5 -7 -17 2 -11 10 -14 10 -9 2 4 -8 2 -13 -4 -13 -6 0 -9
-4 -6 -8 2 -4 -5 -9 -16 -9 -12 -1 -24 -7 -28 -13 -4 -7 -11 -12 -16 -12 -19
-1 -73 -32 -69 -39 3 -4 -6 -6 -20 -5 -13 2 -22 -1 -19 -5 3 -5 -2 -9 -10 -9
-9 0 -16 -5 -16 -11 0 -5 -4 -8 -9 -5 -4 3 -16 -3 -26 -14 -10 -11 -22 -17
-26 -14 -5 3 -9 0 -9 -6 0 -6 -5 -8 -10 -5 -6 3 -13 -1 -16 -9 -3 -9 -10 -13
-15 -10 -5 3 -12 -2 -15 -10 -3 -9 -9 -14 -14 -11 -4 2 -16 -4 -27 -15 -12
-10 -23 -16 -27 -13 -3 3 -8 -2 -12 -11 -3 -9 -10 -14 -14 -11 -4 3 -19 -7
-34 -21 -15 -16 -32 -24 -41 -20 -9 3 -13 2 -10 -4 3 -6 -1 -10 -10 -10 -10 0
-13 -5 -9 -12 5 -7 0 -9 -14 -6 -12 4 -20 1 -19 -5 1 -6 -9 -16 -23 -24 -14
-7 -24 -19 -22 -25 2 -7 0 -10 -3 -6 -10 10 -47 -11 -40 -22 3 -6 -1 -7 -9 -4
-9 3 -16 1 -16 -6 0 -6 -4 -8 -10 -5 -5 3 -10 -1 -10 -9 0 -8 -5 -18 -12 -22
-7 -4 -8 -3 -4 4 5 8 1 10 -9 6 -9 -4 -14 -13 -11 -20 3 -8 0 -11 -9 -8 -7 3
-23 -4 -34 -15 -12 -12 -21 -18 -21 -13 0 4 -7 -2 -16 -13 -8 -11 -18 -20 -22
-20 -4 0 -21 -12 -37 -27 -16 -15 -32 -25 -37 -22 -4 3 -8 -2 -8 -10 0 -9 -5
-16 -11 -16 -7 0 -18 -8 -26 -17 -8 -11 -11 -12 -7 -3 4 8 -8 -1 -27 -20 -20
-19 -34 -38 -32 -42 2 -4 -2 -5 -10 -2 -8 3 -18 0 -23 -7 -5 -8 -3 -10 6 -4 9
5 11 4 6 -3 -4 -7 -13 -12 -20 -12 -7 0 -21 -9 -31 -20 -10 -11 -24 -20 -32
-20 -8 0 -12 -3 -10 -7 3 -5 -1 -14 -9 -21 -8 -7 -14 -11 -14 -8 0 3 -14 -8
-30 -24 -19 -19 -28 -35 -24 -43 5 -7 0 -6 -12 3 -10 8 -16 11 -12 6 4 -4 -5
-19 -20 -33 -15 -14 -26 -30 -24 -35 1 -5 -2 -7 -7 -3 -6 3 -15 -4 -21 -15 -7
-12 -18 -19 -26 -16 -7 3 -13 2 -13 -2 4 -21 -2 -32 -13 -26 -7 4 -10 4 -6 -1
5 -5 -1 -15 -12 -22 -11 -8 -18 -19 -14 -24 3 -5 2 -8 -3 -7 -10 4 -59 -44
-56 -54 2 -5 -2 -8 -8 -8 -17 0 -60 -50 -54 -61 3 -5 -2 -6 -11 -2 -10 3 -15
2 -12 -3 7 -11 -17 -35 -26 -27 -3 4 -6 -1 -6 -10 0 -10 -8 -17 -17 -17 -15 0
-16 -2 -3 -10 13 -8 12 -10 -2 -10 -10 0 -18 -4 -18 -9 0 -5 -16 -25 -35 -45
-19 -20 -31 -36 -27 -36 4 0 -1 -5 -11 -11 -9 -6 -15 -15 -11 -20 3 -5 2 -9
-3 -8 -23 4 -32 -2 -26 -18 5 -13 2 -15 -11 -10 -10 4 -15 3 -11 -3 3 -5 -3
-18 -15 -30 -11 -11 -18 -20 -15 -20 3 0 -4 -10 -15 -22 -12 -13 -29 -35 -38
-50 -9 -16 -20 -28 -24 -28 -4 0 -8 -6 -8 -13 0 -7 -9 -19 -20 -27 -11 -8 -20
-19 -20 -25 0 -5 -13 -25 -29 -44 -17 -19 -28 -38 -25 -42 2 -4 1 -9 -3 -11
-13 -5 -63 -76 -63 -87 0 -6 -4 -11 -10 -11 -5 0 -10 -6 -10 -14 0 -8 -8 -21
-17 -28 -10 -7 -19 -20 -21 -28 -2 -8 -8 -19 -15 -25 -7 -5 -13 -18 -15 -29
-2 -10 -12 -28 -22 -39 -11 -11 -17 -24 -14 -29 3 -4 0 -8 -5 -8 -6 0 -11 -7
-11 -15 0 -8 -4 -15 -8 -15 -9 0 -47 -71 -44 -82 1 -5 -3 -8 -10 -8 -6 0 -8
-3 -5 -7 4 -3 -1 -16 -11 -27 -10 -12 -25 -37 -32 -56 -7 -19 -21 -46 -30 -60
-10 -14 -21 -35 -24 -48 -4 -12 -12 -20 -17 -17 -5 3 -6 -1 -3 -9 3 -8 -4 -29
-15 -45 -12 -16 -21 -37 -21 -46 0 -9 -4 -14 -9 -10 -6 3 -8 -4 -6 -15 2 -11
-1 -20 -6 -20 -6 0 -7 -5 -4 -10 3 -6 0 -13 -9 -16 -8 -3 -12 -12 -10 -19 3
-7 0 -16 -5 -20 -6 -3 -9 -11 -5 -16 3 -6 -2 -19 -12 -30 -9 -10 -13 -19 -9
-19 4 0 0 -10 -11 -22 -10 -12 -14 -18 -7 -14 7 4 0 -17 -16 -47 -15 -29 -27
-61 -25 -70 1 -9 -2 -17 -7 -17 -6 0 -8 -4 -4 -9 3 -5 -1 -15 -8 -23 -8 -7
-12 -18 -10 -25 2 -6 -1 -14 -6 -18 -6 -3 -11 -15 -11 -26 0 -10 -4 -19 -8
-19 -4 0 -9 -12 -10 -26 -1 -15 -7 -33 -13 -40 -6 -7 -8 -18 -4 -24 3 -5 1
-10 -6 -10 -7 0 -10 -3 -6 -6 3 -3 -1 -23 -8 -44 -7 -21 -11 -41 -8 -44 4 -3
1 -6 -6 -6 -8 0 -11 -8 -8 -20 3 -11 0 -26 -6 -33 -7 -6 -13 -21 -15 -32 -5
-43 -10 -61 -22 -90 -6 -16 -14 -48 -17 -70 -2 -22 -8 -42 -13 -45 -5 -3 -10
-20 -12 -38 -1 -18 -6 -32 -11 -32 -5 0 -4 -6 2 -14 8 -9 8 -15 2 -18 -6 -1
-12 -12 -14 -23 -1 -11 -5 -24 -8 -30 -3 -5 -5 -27 -4 -47 0 -21 -4 -38 -8
-38 -5 0 -7 -6 -4 -14 3 -7 1 -18 -5 -24 -6 -6 -11 -26 -10 -43 0 -18 -4 -41
-10 -52 -7 -14 -7 -18 2 -12 9 5 9 2 1 -14 -23 -45 -26 -57 -26 -103 0 -25 -3
-44 -7 -42 -4 3 -6 -16 -4 -41 1 -25 0 -45 -4 -45 -4 0 -7 -6 -7 -12 -6 -91
-11 -147 -15 -154 -2 -5 -4 -25 -4 -44 1 -19 -3 -38 -9 -42 -6 -5 -5 -8 4 -8
9 0 10 -4 4 -12 -11 -14 -12 -16 -14 -105 -1 -34 -6 -60 -10 -57 -5 3 -5 -6 1
-20 5 -14 6 -26 2 -26 -4 0 -6 -19 -4 -42 1 -24 2 -47 2 -53 -4 -59 -5 -522
-1 -530 3 -5 7 -41 7 -80 3 -129 7 -186 13 -189 3 -2 6 -41 6 -85 -1 -45 3
-81 8 -81 5 0 3 -8 -4 -17 -8 -9 -9 -14 -3 -10 7 4 12 -12 13 -50 1 -32 5 -60
9 -63 4 -3 8 -30 8 -60 2 -82 9 -154 17 -166 3 -6 7 -36 9 -67 2 -31 6 -57 10
-57 3 0 5 -12 3 -27 -2 -16 1 -32 5 -38 4 -5 9 -26 11 -45 2 -19 5 -39 8 -45
3 -5 6 -23 7 -40 1 -16 6 -43 12 -60 5 -16 7 -36 5 -42 -3 -7 -1 -13 4 -13 7
0 13 -34 16 -92 1 -10 4 -18 7 -18 3 0 7 -12 8 -27 1 -16 7 -30 12 -31 6 -2 8
-8 4 -13 -3 -5 -1 -9 4 -9 5 0 7 -11 4 -25 -2 -14 0 -25 5 -25 6 0 9 -11 8
-25 -2 -14 1 -27 6 -31 5 -3 7 -10 4 -15 -4 -5 -2 -9 2 -9 5 0 10 -14 11 -32
2 -17 8 -38 14 -45 6 -7 8 -16 5 -19 -3 -3 1 -21 9 -40 8 -19 11 -34 8 -34 -4
0 -1 -6 5 -14 6 -8 11 -18 9 -22 -1 -5 4 -20 12 -34 7 -14 13 -26 12 -27 -4
-8 11 -62 17 -59 3 2 7 -10 8 -27 1 -17 8 -34 14 -38 6 -4 9 -11 5 -17 -3 -5
1 -15 9 -22 7 -6 12 -17 9 -25 -3 -7 0 -16 5 -20 6 -3 9 -11 6 -16 -4 -5 -1
-9 4 -9 6 0 11 -9 11 -21 0 -11 4 -18 9 -14 6 3 8 -4 6 -15 -2 -11 1 -20 7
-20 5 0 8 -6 5 -13 -3 -7 1 -21 9 -31 7 -11 11 -23 8 -27 -3 -5 0 -9 5 -9 6 0
11 -7 11 -16 0 -8 4 -13 9 -10 5 4 8 -5 7 -19 -2 -15 1 -22 7 -18 6 4 8 0 4
-10 -3 -9 -2 -19 4 -22 5 -4 6 -11 3 -17 -5 -7 -1 -9 9 -5 12 4 15 1 12 -14
-2 -11 2 -22 10 -26 8 -3 13 -9 10 -13 -3 -5 2 -16 11 -24 9 -9 11 -16 4 -16
-7 0 -6 -5 3 -14 8 -8 20 -28 27 -45 7 -17 16 -31 21 -31 5 0 5 -7 2 -17 -4
-11 -3 -14 5 -9 8 5 12 0 12 -12 0 -11 7 -25 15 -32 8 -7 12 -16 9 -21 -3 -5
0 -9 5 -9 6 0 11 -9 11 -21 0 -11 4 -17 10 -14 5 3 12 -6 16 -20 3 -14 10 -25
16 -25 5 0 7 -4 4 -9 -4 -5 -2 -11 3 -13 5 -1 11 -10 13 -18 2 -8 13 -26 26
-40 12 -14 25 -35 28 -47 3 -12 12 -24 21 -27 8 -3 12 -10 9 -14 -3 -5 4 -15
15 -22 10 -8 19 -19 19 -25 0 -9 14 -28 69 -92 10 -12 17 -24 15 -26 -2 -2 10
-19 26 -37 17 -19 30 -37 30 -42 0 -4 7 -8 16 -8 8 0 12 -5 9 -10 -3 -6 -1
-10 4 -10 6 0 11 -7 11 -17 0 -9 3 -13 7 -10 3 4 15 -7 25 -24 11 -19 24 -29
33 -25 9 3 12 0 9 -9 -3 -8 3 -22 15 -31 11 -10 18 -21 15 -25 -2 -4 5 -10 16
-14 11 -3 20 -12 20 -19 0 -7 14 -22 30 -34 17 -13 30 -29 30 -37 0 -7 9 -17
20 -20 11 -3 20 -12 20 -20 0 -8 9 -17 20 -20 11 -3 20 -14 20 -22 0 -9 2 -14
5 -11 9 9 87 -71 80 -82 -3 -6 0 -7 9 -4 11 4 19 -2 25 -17 5 -13 10 -17 10
-9 1 10 6 7 17 -8 8 -12 21 -19 27 -16 7 4 9 3 4 -1 -9 -11 21 -45 40 -45 8 0
11 -4 8 -10 -3 -5 1 -10 10 -10 9 0 13 -4 10 -10 -3 -5 1 -10 10 -10 8 0 18
-7 22 -16 3 -9 12 -13 21 -9 9 3 14 3 10 0 -8 -9 23 -45 39 -45 6 0 15 -5 19
-12 5 -7 2 -8 -7 -3 -8 5 -11 4 -6 -1 5 -5 12 -9 15 -9 16 -1 59 -30 83 -56
14 -16 31 -29 37 -29 7 0 12 -3 12 -7 0 -10 62 -47 73 -45 4 1 7 -4 7 -11 0
-8 12 -20 27 -28 16 -8 32 -20 36 -27 5 -7 12 -10 18 -7 5 4 9 1 9 -5 0 -7 7
-9 16 -6 9 3 12 2 9 -5 -4 -6 2 -13 14 -16 11 -3 18 -9 15 -14 -3 -5 4 -9 15
-9 12 0 21 -4 21 -9 0 -5 15 -14 33 -22 17 -7 43 -23 56 -36 13 -12 27 -20 32
-17 5 3 9 1 9 -4 0 -12 66 -52 85 -52 8 0 18 -7 23 -16 5 -9 13 -16 18 -16 14
0 64 -31 64 -41 0 -4 5 -5 10 -2 6 3 10 2 10 -4 0 -5 9 -8 20 -6 11 2 18 0 15
-6 -4 -5 -1 -9 5 -9 6 0 18 -7 26 -15 9 -8 24 -15 35 -15 10 0 19 -5 19 -11 0
-6 7 -8 15 -5 9 3 18 -1 21 -8 5 -13 40 -30 57 -27 4 1 7 -3 7 -9 0 -5 9 -10
20 -10 11 0 20 -4 20 -9 0 -5 10 -12 23 -16 12 -4 25 -8 30 -10 4 -1 12 -3 18
-4 5 0 7 -6 3 -13 -5 -8 -2 -9 9 -5 10 3 17 2 17 -4 0 -6 4 -8 9 -4 5 3 16 -2
25 -11 9 -8 20 -12 26 -9 5 3 10 1 10 -4 0 -6 7 -11 15 -11 8 0 15 -5 15 -11
0 -5 4 -8 8 -5 5 3 27 -6 51 -20 24 -13 47 -22 51 -19 4 3 13 -2 20 -10 10
-12 16 -13 27 -4 11 10 12 8 7 -6 -5 -12 -4 -16 3 -12 6 4 19 0 27 -9 12 -11
16 -12 16 -2 0 11 2 11 9 0 4 -8 11 -13 15 -13 20 3 26 0 21 -9 -3 -6 1 -7 9
-4 9 3 16 1 16 -5 0 -6 3 -10 8 -10 18 3 33 -2 28 -9 -2 -4 10 -8 27 -7 18 0
37 -6 42 -13 6 -7 20 -14 33 -15 12 0 22 -5 22 -10 0 -4 8 -7 18 -5 11 2 26
-3 34 -9 8 -7 23 -14 34 -16 10 -1 34 -10 52 -19 18 -9 30 -13 27 -8 -3 4 12
-1 32 -11 21 -11 43 -19 49 -19 7 0 15 -6 17 -12 4 -10 6 -10 6 0 1 10 5 10
17 -2 8 -9 20 -14 25 -11 5 4 9 0 9 -7 0 -9 3 -9 10 2 7 11 10 11 10 2 0 -7 4
-10 10 -7 5 3 10 0 10 -7 0 -10 2 -10 9 1 6 10 10 10 16 1 4 -6 13 -9 21 -6 8
3 14 1 14 -4 0 -6 11 -10 25 -10 14 0 25 -5 25 -11 0 -5 5 -7 10 -4 6 4 22 -1
37 -10 17 -12 23 -13 17 -4 -7 12 -5 12 9 1 9 -8 21 -11 27 -7 5 3 10 2 10 -3
0 -5 14 -8 30 -7 17 1 30 -1 30 -6 0 -5 14 -9 30 -9 17 0 30 -5 30 -12 0 -9 4
-8 10 2 9 13 10 13 10 0 0 -13 1 -13 10 0 7 11 10 12 10 2 0 -8 6 -12 13 -9 6
2 23 -5 36 -17 13 -11 21 -15 16 -7 -6 11 -4 13 9 8 10 -4 20 -7 22 -7 3 0 2
-6 -2 -12 -6 -10 -5 -10 7 -1 12 10 18 10 29 0 10 -10 11 -9 5 3 -8 13 -6 13
8 2 9 -8 21 -11 27 -7 5 3 10 2 10 -4 0 -6 7 -7 17 -4 10 4 14 2 10 -4 -3 -5
0 -10 8 -10 8 0 15 5 15 11 0 5 7 1 15 -10 10 -13 14 -15 15 -5 0 12 3 12 18
-1 21 -18 99 -41 112 -33 6 3 10 0 10 -7 0 -9 3 -9 10 2 9 13 10 13 10 0 0
-13 1 -13 10 0 7 12 10 12 10 1 0 -7 6 -11 14 -8 8 3 16 2 18 -4 2 -5 22 -10
46 -12 23 -1 42 -6 42 -12 0 -5 5 -3 10 5 8 12 10 12 10 1 0 -11 3 -11 17 0
11 10 14 10 9 2 -5 -9 1 -13 21 -14 15 0 37 -3 48 -5 34 -8 90 -8 103 0 7 4
15 1 18 -8 3 -9 10 -13 15 -10 5 2 18 0 30 -7 16 -8 20 -8 14 1 -6 9 -3 9 13
1 11 -6 42 -10 69 -10 56 1 75 -2 85 -16 5 -6 8 -5 8 3 0 8 5 10 12 6 6 -4 25
-8 42 -9 17 0 37 -4 44 -9 7 -4 12 -2 12 5 0 8 4 8 13 2 7 -7 117 -9 287 -7
282 2 338 5 358 18 7 4 12 2 12 -5 0 -8 3 -9 13 0 8 6 17 8 20 4 4 -3 7 -2 7
3 0 5 19 8 42 7 24 0 49 3 56 9 8 8 12 7 12 -3 0 -11 2 -11 10 1 7 11 10 11
10 2 0 -8 5 -10 13 -5 6 4 28 9 47 10 48 4 68 8 75 15 4 3 20 2 36 -2 23 -7
31 -5 36 6 5 13 7 13 14 2 5 -7 9 -8 9 -3 0 6 15 10 33 9 17 0 37 3 42 7 6 3
17 6 25 6 31 1 165 19 165 23 0 1 11 4 25 6 80 11 95 15 102 27 6 9 8 9 8 0 0
-15 50 1 62 20 5 8 8 8 8 1 0 -6 10 -10 23 -8 12 1 26 3 30 3 5 1 6 5 3 10 -4
5 4 7 16 3 15 -4 19 -2 13 7 -6 10 -3 11 13 2 14 -8 23 -8 27 -1 4 6 14 10 23
9 38 -3 53 1 46 14 -6 9 -4 9 8 -1 11 -9 18 -10 23 -2 3 6 11 8 16 5 5 -4 9
-1 9 5 0 8 6 7 21 -1 14 -7 19 -7 15 -1 -6 10 57 29 78 24 4 -2 15 3 24 10 13
11 15 11 8 -2 -4 -9 -2 -8 7 2 8 10 17 15 20 12 3 -3 12 -2 19 2 13 9 29 13
61 16 9 1 17 5 17 9 0 4 8 6 17 5 9 -2 28 3 42 10 18 9 27 10 32 3 5 -8 8 -8
10 0 4 10 43 22 77 24 6 0 12 4 12 8 0 4 9 6 20 4 11 -2 20 0 20 4 0 5 10 8
23 7 12 -1 28 4 35 11 7 7 24 13 37 13 13 0 30 6 37 13 7 7 23 12 36 11 12 -1
22 2 22 6 0 4 6 7 13 8 28 1 62 13 99 32 22 11 37 16 33 10 -3 -5 7 -3 22 5
41 20 107 49 115 50 3 0 10 3 14 7 4 5 16 8 26 8 10 0 18 5 18 11 0 5 5 7 10
4 6 -3 10 -1 10 4 0 6 3 10 8 10 24 -4 42 2 36 12 -4 7 -1 10 7 7 8 -3 33 5
56 18 22 12 44 20 47 17 3 -4 6 -1 6 5 0 7 3 11 8 10 9 -3 125 54 133 65 3 5
9 8 13 8 19 -3 27 1 47 22 12 12 19 17 15 10 -4 -8 0 -8 19 0 14 7 25 15 25
20 0 4 6 7 13 7 7 0 23 9 35 20 12 12 22 16 22 9 0 -7 8 -2 19 9 10 12 26 22
35 22 9 0 16 3 16 8 0 4 15 14 33 21 17 8 38 21 45 28 8 7 18 10 24 7 6 -4 8
-2 4 4 -3 6 3 13 14 17 12 4 18 11 14 18 -5 8 -3 8 6 0 11 -10 19 -7 41 18 15
17 31 31 36 31 4 0 7 4 6 9 -2 4 3 6 10 3 7 -2 24 6 37 18 14 13 28 23 33 23
4 0 11 6 16 13 4 7 15 10 24 6 10 -3 17 -1 17 5 0 6 6 11 13 11 7 0 23 9 35
20 12 12 22 17 22 13 0 -4 7 2 15 13 8 10 15 15 15 11 0 -4 13 6 29 22 16 16
31 27 34 24 3 -2 10 5 17 16 6 12 15 19 20 16 5 -3 12 4 15 16 4 11 9 18 12
16 2 -3 22 12 44 34 21 21 43 39 49 39 6 0 10 7 10 15 0 8 3 14 8 14 20 -3 31
2 26 15 -3 9 3 17 15 21 12 3 20 9 18 13 -5 10 30 42 37 35 3 -4 6 -1 6 6 0 7
4 10 9 6 5 -3 12 4 16 15 4 11 10 18 15 15 5 -3 12 4 15 16 4 11 9 18 11 16 7
-7 112 97 107 106 -2 4 0 7 6 7 14 0 61 52 61 68 0 7 5 10 10 7 6 -3 10 -2 10
3 0 5 18 28 40 51 22 23 40 46 40 52 0 6 5 7 10 4 6 -3 10 -1 10 5 0 7 14 25
30 40 17 15 30 31 30 34 0 8 14 25 53 66 15 15 27 32 27 37 0 5 9 15 20 23 11
8 20 20 20 27 0 7 5 13 12 13 6 0 8 3 5 6 -4 4 2 14 13 24 10 9 20 22 22 30 2
7 10 21 18 31 31 36 40 48 58 78 10 17 22 28 26 23 4 -4 7 -2 5 3 -4 17 23 65
34 58 6 -3 7 -1 3 5 -3 6 1 18 10 26 8 9 12 16 7 16 -4 0 -3 4 3 8 6 4 19 23
29 42 9 19 26 44 36 55 17 19 19 23 19 46 0 5 5 7 12 3 7 -5 9 -2 5 9 -3 9 1
18 10 21 9 4 13 9 10 12 -3 4 1 13 9 21 8 9 13 22 10 30 -3 8 -1 11 4 8 5 -3
12 6 16 20 3 14 10 25 16 25 5 0 6 5 3 10 -3 6 -1 10 4 10 6 0 10 6 9 13 -2 6
2 11 8 10 6 -1 10 9 8 22 -1 14 1 25 6 25 7 0 39 58 42 77 1 5 8 14 15 21 7 8
11 18 8 23 -4 5 -1 9 5 9 6 0 8 5 5 10 -3 6 -2 10 3 10 9 0 27 47 24 63 -1 4
3 7 9 7 5 0 7 5 4 10 -3 6 -1 10 5 10 6 0 8 5 5 10 -3 6 -1 10 4 10 6 0 10 3
9 8 -1 4 3 17 10 28 6 12 8 24 5 28 -3 3 -1 6 5 6 7 0 11 3 10 8 -1 4 4 20 10
35 7 16 12 33 12 38 0 5 5 9 11 9 5 0 8 4 4 9 -3 5 -1 12 4 15 7 5 16 35 22
74 0 4 6 13 12 21 11 13 18 33 20 63 1 9 4 15 8 12 4 -2 10 14 14 36 4 22 12
40 18 40 7 0 5 5 -3 10 -10 6 -11 10 -2 10 6 0 12 9 12 19 0 11 5 23 10 26 6
4 10 12 9 18 -3 22 13 77 23 77 5 0 7 4 3 9 -3 5 -1 12 4 15 5 3 7 15 4 26 -3
11 -1 20 5 20 10 0 25 50 26 87 0 12 4 20 8 17 4 -3 8 11 8 30 0 19 5 38 10
41 6 3 8 17 6 31 -3 13 -1 24 4 24 4 0 7 8 6 18 -2 9 1 24 5 32 13 25 49 192
43 201 -3 5 -1 9 4 9 6 0 9 13 8 29 -1 17 2 28 6 25 7 -5 13 34 9 64 -1 6 2
12 7 12 4 0 9 12 10 28 2 52 15 117 26 131 8 11 8 13 -1 7 -7 -4 -13 -2 -13 3
0 6 4 11 8 11 4 0 8 15 9 33 2 39 11 119 19 167 3 19 6 50 6 68 0 17 3 32 7
32 3 0 6 31 6 70 0 38 3 70 7 70 4 0 5 7 2 15 -4 8 -2 21 3 28 4 6 8 49 8 94
0 45 2 80 5 78 4 -2 6 75 6 172 -1 96 2 177 7 180 4 2 5 9 1 14 -3 5 -6 111
-7 234 0 124 -3 225 -6 225 -4 0 -7 19 -7 43 -1 35 -7 76 -14 97 -1 3 -3 28
-4 55 -2 28 -4 52 -5 55 -2 3 -4 28 -6 55 -2 28 -4 50 -5 50 -2 0 -9 42 -24
140 -2 11 -6 27 -10 36 -4 9 -6 20 -5 25 1 5 -1 32 -6 59 -5 28 -8 53 -7 58 1
4 -4 7 -10 7 -9 0 -8 4 2 10 12 8 12 10 1 10 -8 0 -11 7 -8 20 3 10 -1 27 -8
37 -7 9 -11 23 -8 30 3 7 0 13 -6 13 -6 0 -11 5 -11 11 0 5 5 7 12 3 7 -5 8
-3 2 7 -5 8 -9 21 -10 29 0 8 -3 22 -7 30 -3 8 -11 35 -17 60 -7 25 -17 51
-23 59 -10 12 -9 13 3 6 10 -6 9 -2 -3 12 -14 16 -15 22 -5 26 11 4 11 6 0 6
-7 1 -10 5 -7 11 3 5 -1 22 -9 38 -8 16 -12 32 -9 36 4 3 2 6 -4 6 -6 0 -9 14
-8 30 1 17 -2 30 -7 30 -5 0 -7 4 -4 9 4 5 2 11 -4 13 -5 1 -11 15 -12 31 -1
15 -6 27 -10 27 -4 0 -8 10 -8 23 0 13 -3 27 -7 31 -7 7 -11 18 -15 51 -2 11
-8 23 -15 28 -7 4 -10 14 -7 22 4 8 1 15 -6 15 -7 0 -10 7 -6 15 3 8 0 15 -6
15 -6 0 -9 3 -5 6 3 4 -2 23 -12 43 -11 20 -19 38 -18 41 1 14 -16 50 -23 50
-5 0 -7 6 -4 14 3 8 1 17 -5 21 -6 3 -11 13 -11 22 0 9 -8 25 -17 36 -10 11
-12 17 -5 13 11 -7 11 -4 0 13 -7 12 -16 21 -20 21 -5 0 -8 5 -8 11 0 5 6 7
13 3 6 -4 4 2 -6 13 -9 11 -14 23 -10 26 3 4 1 7 -6 7 -7 0 -9 5 -6 10 3 6 1
10 -4 10 -6 0 -11 7 -11 16 0 9 -8 23 -17 30 -12 9 -14 13 -5 14 10 0 10 4 -2
16 -14 14 -21 35 -17 57 0 4 -3 7 -8 7 -5 0 -14 15 -22 33 -7 17 -15 34 -18
37 -12 11 -31 51 -31 65 0 9 -4 13 -10 10 -5 -3 -10 1 -10 9 0 9 -4 16 -10 16
-5 0 -7 7 -4 15 4 8 1 15 -5 15 -6 0 -11 6 -11 14 0 8 -7 16 -15 20 -8 3 -15
17 -15 31 0 14 -7 28 -15 31 -8 4 -13 10 -10 14 5 8 -33 62 -47 68 -5 2 -8 8
-8 13 0 6 6 7 13 2 6 -4 1 7 -13 24 -14 17 -28 28 -33 26 -4 -2 -7 -1 -6 4 4
22 -3 41 -26 67 -23 27 -29 40 -26 58 0 5 -5 7 -12 5 -6 -1 -11 4 -9 11 1 7
-5 15 -13 18 -8 4 -15 12 -15 20 0 8 -4 14 -10 14 -5 0 -10 7 -10 15 0 8 -4
15 -10 15 -5 0 -10 7 -10 15 0 8 -4 15 -10 15 -5 0 -10 6 -10 14 0 8 -7 17
-16 20 -9 4 -14 9 -11 13 4 3 -3 14 -15 24 -11 11 -18 19 -14 19 4 0 -2 10
-13 22 -11 11 -17 26 -14 32 3 6 3 8 -2 4 -7 -7 -45 27 -45 41 0 3 -14 21 -30
40 -17 18 -30 38 -30 42 0 5 -7 9 -16 9 -8 0 -13 4 -9 9 3 5 1 12 -5 16 -6 4
-7 12 -4 18 4 7 4 9 -1 5 -7 -7 -35 14 -35 27 0 3 -13 19 -30 35 -16 16 -30
34 -30 40 0 5 -7 10 -16 10 -8 0 -13 3 -11 8 7 10 -19 32 -28 24 -4 -4 -6 -2
-4 3 4 17 -13 45 -27 45 -8 0 -14 4 -14 9 0 5 -27 37 -60 70 -33 34 -60 66
-60 71 0 6 -4 9 -9 6 -5 -3 -11 1 -15 9 -3 8 -13 15 -21 15 -9 0 -13 5 -10 10
3 6 -1 13 -9 16 -9 3 -16 12 -16 20 0 8 -6 13 -12 11 -7 -1 -12 4 -11 10 2 7
-1 12 -5 10 -4 -1 -27 17 -51 41 -23 23 -47 42 -52 42 -5 0 -9 7 -9 17 0 9 -3
14 -6 10 -4 -3 -23 11 -43 31 -37 38 -77 72 -125 107 -15 11 -40 31 -55 45
-16 14 -45 39 -66 55 -21 17 -43 35 -50 42 -7 7 -15 10 -18 7 -2 -3 -14 6 -25
20 -11 15 -26 26 -34 26 -7 0 -20 9 -28 20 -8 11 -18 20 -23 20 -8 0 -23 11
-58 43 -10 9 -25 17 -33 17 -8 0 -16 7 -20 15 -3 8 -12 15 -20 15 -7 0 -16 7
-20 15 -3 8 -15 15 -26 15 -11 0 -20 4 -20 9 0 6 -18 20 -40 32 -22 13 -40 27
-40 31 0 5 -4 6 -10 3 -5 -3 -20 5 -32 18 -13 13 -29 22 -35 20 -7 -3 -13 0
-13 7 0 6 -4 8 -10 5 -5 -3 -10 -2 -10 4 0 10 -16 20 -90 58 -19 10 -37 20
-40 23 -3 3 -18 12 -35 20 -16 8 -33 19 -36 23 -3 5 -13 9 -22 11 -9 1 -26 11
-38 22 -14 11 -19 13 -14 4 7 -12 4 -12 -11 1 -28 25 -121 69 -128 62 -3 -4
-6 -1 -6 6 0 7 -4 9 -10 6 -5 -3 -10 -2 -10 4 0 9 -34 25 -56 26 -6 0 -19 8
-29 18 -10 10 -24 16 -31 13 -8 -3 -14 -1 -14 4 0 6 -7 10 -15 10 -8 0 -15 4
-15 8 0 5 -6 9 -12 9 -7 0 -33 9 -58 20 -25 11 -65 28 -90 39 -25 10 -52 24
-61 31 -9 7 -18 11 -20 8 -3 -2 -30 5 -60 17 -30 11 -64 21 -76 22 -13 0 -23
5 -23 9 0 5 -4 6 -9 3 -5 -4 -11 -2 -13 4 -1 5 -15 11 -30 12 -16 1 -28 6 -28
10 0 4 -8 8 -18 8 -10 0 -22 3 -26 7 -7 7 -27 12 -63 16 -13 1 -23 5 -23 10 0
4 -7 7 -15 7 -8 0 -15 5 -15 12 0 9 -3 9 -11 1 -9 -9 -18 -8 -35 4 -13 8 -24
12 -24 8 0 -4 -6 -2 -13 4 -8 6 -17 8 -20 5 -3 -3 -12 -2 -19 2 -7 5 -20 9
-28 10 -8 0 -23 4 -32 7 -42 16 -55 20 -83 23 -36 5 -70 12 -70 14 0 3 -39 10
-67 13 -16 1 -28 4 -28 7 0 3 -21 6 -46 6 -26 1 -49 6 -53 10 -3 5 -22 10 -41
12 -19 1 -53 4 -76 5 -22 2 -46 7 -52 11 -7 4 -27 8 -45 8 -17 0 -36 3 -42 6
-11 7 -79 13 -167 15 -32 1 -58 5 -58 9 0 4 -8 7 -17 7 -10 1 -62 2 -115 3
-54 1 -98 5 -98 8 0 10 -523 6 -539 -4 -7 -5 -16 -5 -20 0 -7 11 -41 15 -41 5
0 -10 -81 -8 -97 2 -6 4 -14 3 -17 -2z"/>
</g>
</svg>
